<svg width="11" height="13" viewBox="0 0 11 13" fill="none" xmlns="http://www.w3.org/2000/svg">
    <path d="M4.49609 0C3.67578 0 3 0.675781 3 1.49609V2H0V3H1V11.5C1 12.3242 1.67578 13 2.5 13H8.5C9.32422 13 10 12.3242 10 11.5V3H11V2H8V1.49609C8 0.675781 7.32422 0 6.50391 0H4.49609ZM4.49609 1H6.50391C6.78516 1 7 1.21484 7 1.49609V3H9V11.5C9 11.7812 8.78125 12 8.5 12H2.5C2.21875 12 2 11.7812 2 11.5V3H4V1.49609C4 1.21484 4.21484 1 4.49609 1ZM3 4V11H4V4H3ZM5 4V11H6V4H5ZM7 4V11H8V4H7Z" fill="#ADADAD"/>
</svg>
